<?xml version="1.0" encoding="UTF-8"?>
<svg version="1.1" xmlns="http://www.w3.org/2000/svg" width="4500" height="4500">
<path d="M0 0 C3 1 3 1 4.44433594 3.66894531 C4.95254883 4.87647461 5.46076172 6.08400391 5.984375 7.328125 C6.27219849 8.00264206 6.56002197 8.67715912 6.85656738 9.37211609 C7.49155499 10.86379895 8.12150742 12.35763228 8.74719238 13.85324097 C9.77212299 16.30287501 10.80960483 18.74684374 11.85058594 21.18969727 C12.99148927 23.867622 14.13143687 26.54592205 15.26763916 29.22584534 C19.70880997 39.69876379 24.24597436 50.12969939 28.78234863 60.56164551 C30.7621427 65.11551767 32.73893376 69.67069113 34.71588135 74.22579956 C40.87679642 88.42027786 47.04651338 102.61092708 53.21813965 116.80075073 C60.47395404 133.48358035 67.71761572 150.17166595 74.95819092 166.8611145 C82.2617122 183.69528175 89.57419036 200.52553066 96.89306641 217.35302734 C102.26840323 229.7123172 107.6358332 242.0749518 112.99072266 254.44311523 C117.98195066 265.96723581 122.9911497 277.48353001 128 289 C134.00566701 302.80837513 140.00556943 316.619163 145.98828125 330.4375 C150.980346 341.96348241 155.99033565 353.48165832 161 365 C166.50766513 377.66335715 172.01335426 390.32751967 177.5 403 C182.77929046 415.19289085 188.07566306 427.37831022 193.375 439.5625 C201.24445221 457.65590106 209.10266626 475.75415378 216.95544434 493.85479736 C224.25988226 510.69106984 231.57327456 527.52342507 238.89306641 544.35302734 C244.26840323 556.7123172 249.6358332 569.0749518 254.99072266 581.44311523 C259.98195066 592.96723581 264.9911497 604.48353001 270 616 C276.00566701 629.80837513 282.00556943 643.619163 287.98828125 657.4375 C292.980346 668.96348241 297.99033565 680.48165832 303 692 C308.50766513 704.66335715 314.01335426 717.32751967 319.5 730 C324.77929046 742.19289085 330.07566306 754.37831022 335.375 766.5625 C343.24445221 784.65590106 351.10266626 802.75415378 358.95544434 820.85479736 C366.25988226 837.69106984 373.57327456 854.52342507 380.89306641 871.35302734 C386.26840323 883.7123172 391.6358332 896.0749518 396.99072266 908.44311523 C401.98195066 919.96723581 406.9911497 931.48353001 412 943 C418.00566701 956.80837513 424.00556943 970.619163 429.98828125 984.4375 C434.980346 995.96348241 439.99033565 1007.48165832 445 1019 C451.00566701 1032.80837513 457.00556943 1046.619163 462.98828125 1060.4375 C467.54306035 1070.95385072 472.112919 1081.46362519 476.68371582 1091.97302246 C477.98714704 1094.97044284 479.29005056 1097.96809202 480.59277344 1100.96582031 C485.88148358 1113.13536511 485.88148358 1113.13536511 491.18835449 1125.29699707 C492.42805075 1128.13289651 493.66518867 1130.96990731 494.90185547 1133.80712891 C495.46270625 1135.09188726 496.02485955 1136.37607787 496.58837891 1137.65966797 C497.34861138 1139.39148768 498.10414536 1141.12536775 498.859375 1142.859375 C499.48537598 1144.28975098 499.48537598 1144.28975098 500.12402344 1145.74902344 C501 1148 501 1148 501 1150 C427.08 1150 353.16 1150 277 1150 C251.79257473 1091.56460506 251.79257473 1091.56460506 244.45614624 1074.42272949 C243.0232775 1071.07482491 241.58946944 1067.72732362 240.15551758 1064.37988281 C237.10296038 1057.25356258 234.05139517 1050.12681786 231 1043 C226.89665099 1033.41631634 222.79276322 1023.83286386 218.6875 1014.25 C218.18462463 1013.07611725 217.68174927 1011.9022345 217.16363525 1010.69277954 C210.63339435 995.45129674 204.08142934 980.21944549 197.5 965 C190.4065635 948.59654651 183.34985331 932.17759237 176.3125 915.75 C175.81129639 914.58004486 175.31009277 913.41008972 174.79370117 912.2046814 C171.19493343 903.80349229 167.59735435 895.40179439 164 887 C159.83413484 877.27048996 155.66775388 867.54120118 151.5 857.8125 C150.73884384 856.03570862 150.73884384 856.03570862 149.96231079 854.22302246 C143.9990257 840.30482852 138.02058452 826.39350431 132 812.5 C125.46185889 797.41214741 118.97509035 782.30251235 112.5 767.1875 C111.99248199 766.00281128 111.48496399 764.81812256 110.96206665 763.59753418 C106.78644236 753.84976401 102.61237489 744.1013274 98.43841553 734.35284424 C94.85549917 725.98492009 91.27199255 717.6172491 87.6875 709.25 C87.18516846 708.07738617 86.68283691 706.90477234 86.1652832 705.69662476 C79.63449292 690.45386022 73.08198284 675.22072545 66.5 660 C59.4065635 643.5965465 52.3498547 627.17759177 45.3125 610.75 C44.55919907 608.99157776 44.55919907 608.99157776 43.79067993 607.19763184 C39.67541579 597.59071202 35.56174347 587.98311076 31.44812012 578.37548828 C27.86197777 570.00001232 24.27522876 561.62479654 20.6875 553.25 C20.18489655 552.07675171 19.68229309 550.90350342 19.16445923 549.69470215 C12.63394364 534.45257848 6.08170609 519.22008547 -0.5 504 C-7.5934365 487.59654651 -14.65014669 471.17759237 -21.6875 454.75 C-22.18870361 453.58004486 -22.68990723 452.41008972 -23.20629883 451.2046814 C-26.80506657 442.80349229 -30.40264565 434.40179439 -34 426 C-37.65530785 417.46291272 -41.31103751 408.92600647 -44.96783447 400.38955688 C-45.98425883 398.01657061 -47.00049607 395.64350418 -48.01654053 393.27035522 C-52.97235826 381.69564558 -57.93537986 370.12445205 -62.95703125 358.578125 C-63.52422379 357.27273018 -63.52422379 357.27273018 -64.10287476 355.94096375 C-65.81995783 351.99002695 -67.54071472 348.04078748 -69.26953125 344.0949707 C-72.15550223 337.4812591 -74.88073622 330.90864691 -77 324 C-77.66 324 -78.32 324 -79 324 C-79.09482666 324.65210449 -79.18965332 325.30420898 -79.28735352 325.97607422 C-80.23148049 329.98222588 -81.79261163 333.602815 -83.40234375 337.3828125 C-83.75115097 338.21236954 -84.09995819 339.04192657 -84.45933533 339.8966217 C-85.61446837 342.64122923 -86.77605256 345.38305933 -87.9375 348.125 C-88.75521841 350.06530112 -89.57243009 352.00581586 -90.38916016 353.9465332 C-92.08573098 357.97675679 -93.78447856 362.00605208 -95.48486328 366.03466797 C-98.93173523 374.2048417 -102.35567758 382.38458668 -105.77786255 390.56512451 C-106.88650652 393.21500286 -107.99580587 395.8646061 -109.10522461 398.51416016 C-114.75219049 412.00304294 -120.37851543 425.50048134 -126 439 C-132.36146413 454.27651684 -138.73305137 469.54871129 -145.125 484.8125 C-145.67755463 486.13201157 -145.67755463 486.13201157 -146.24127197 487.47817993 C-149.19487147 494.53096411 -152.14953277 501.58330334 -155.10424805 508.63562012 C-157.69500414 514.81936844 -160.28532317 521.00329961 -162.875 527.1875 C-163.24320862 528.06677155 -163.61141724 528.94604309 -163.99078369 529.85195923 C-170.43541686 545.24368347 -176.85566375 560.64550822 -183.2699585 576.04989624 C-189.53110553 591.08583676 -195.81065854 606.11394581 -202.10449219 621.13623047 C-208.08711486 635.41690391 -214.04824575 649.70643611 -220 664 C-226.36136769 679.27655685 -232.73305147 694.54871152 -239.125 709.8125 C-239.49336975 710.69217438 -239.8617395 711.57184875 -240.24127197 712.47817993 C-243.19487147 719.53096411 -246.14953277 726.58330334 -249.10424805 733.63562012 C-251.69500414 739.81936844 -254.28532317 746.00329961 -256.875 752.1875 C-257.24320862 753.06677155 -257.61141724 753.94604309 -257.99078369 754.85195923 C-264.43541686 770.24368347 -270.85566375 785.64550822 -277.2699585 801.04989624 C-283.53110553 816.08583676 -289.81065854 831.11394581 -296.10449219 846.13623047 C-302.08711486 860.41690391 -308.04824575 874.70643611 -314 889 C-320.36136769 904.27655685 -326.73305147 919.54871152 -333.125 934.8125 C-333.49336975 935.69217438 -333.8617395 936.57184875 -334.24127197 937.47817993 C-337.19487147 944.53096411 -340.14953277 951.58330334 -343.10424805 958.63562012 C-345.69500414 964.81936844 -348.28532317 971.00329961 -350.875 977.1875 C-351.24320862 978.06677155 -351.61141724 978.94604309 -351.99078369 979.85195923 C-358.01009465 994.227886 -364.00869249 1008.61238289 -370 1023 C-376.36146416 1038.27651691 -382.73307589 1053.54870097 -389.125 1068.8125 C-389.67107407 1070.11655792 -389.67107407 1070.11655792 -390.22817993 1071.44696045 C-393.2169988 1078.58398011 -396.20690528 1085.72054399 -399.19708252 1092.85699463 C-401.63742294 1098.68120222 -404.07736419 1104.50557671 -406.51678467 1110.33016968 C-407.64440671 1113.02212406 -408.77262438 1115.71382824 -409.90087891 1118.40551758 C-410.60452244 1120.08543655 -411.30813713 1121.7653676 -412.01171875 1123.4453125 C-412.31211563 1124.16149246 -412.61251251 1124.87767242 -412.92201233 1125.61555481 C-416.31833785 1133.72877609 -419.65093778 1141.86656317 -423 1150 C-443.46 1150 -463.92 1150 -485 1150 C-472.45514274 1119.89234258 -472.45514274 1119.89234258 -466.5625 1105.8125 C-465.99715042 1104.46161285 -465.99715042 1104.46161285 -465.42037964 1103.08343506 C-457.12066822 1083.25635864 -448.76053042 1063.45495633 -440.39111328 1043.65722656 C-436.8201247 1035.20948773 -433.253474 1026.75991737 -429.68649292 1018.31048584 C-427.70783935 1013.62358232 -425.7289055 1008.93679715 -423.75 1004.25 C-422.95833199 1002.37500057 -422.16666532 1000.50000057 -421.375 998.625 C-381 903 -381 903 -340.625 807.375 C-340.03721016 805.98286537 -340.03721016 805.98286537 -339.43754578 804.56260681 C-338.64572806 802.68725013 -337.8539088 800.81189409 -337.06208801 798.9365387 C-335.08521988 794.25450131 -333.10837826 789.57245273 -331.1315918 784.89038086 C-327.54168942 776.38767384 -323.95158029 767.88505438 -320.36050415 759.38284302 C-312.56475871 740.92564042 -304.77191361 722.46725229 -297 704 C-288.82394109 684.57243682 -280.62448486 665.15477708 -272.42333984 645.73779297 C-270.02790446 640.06625629 -267.63300259 634.39449445 -265.23828125 628.72265625 C-264.8470105 627.79594116 -264.45573975 626.86922607 -264.0526123 625.91442871 C-262.86839897 623.10962304 -261.68419717 620.3048125 -260.5 617.5 C-256.12066959 607.12740248 -251.74131128 596.75481696 -247.36050415 586.38284302 C-239.56475871 567.92564042 -231.77191361 549.46725229 -224 531 C-215.82394109 511.57243682 -207.62448486 492.15477708 -199.42333984 472.73779297 C-195.84293697 464.26067587 -192.26374815 455.78304617 -188.68447876 447.30545044 C-186.70636995 442.62027885 -184.72818088 437.93514116 -182.75 433.25 C-181.95833295 431.37500016 -181.16666628 429.50000016 -180.375 427.625 C-178.79166667 423.875 -177.20833333 420.125 -175.625 416.375 C-175.03721016 414.98286537 -175.03721016 414.98286537 -174.43754578 413.56260681 C-173.64572806 411.68725013 -172.8539088 409.81189409 -172.06208801 407.9365387 C-170.08521988 403.25450131 -168.10837826 398.57245273 -166.1315918 393.89038086 C-162.54168942 385.38767384 -158.95158029 376.88505438 -155.36050415 368.38284302 C-147.56475871 349.92564042 -139.77191361 331.46725229 -132 313 C-123.82394109 293.57243682 -115.62448486 274.15477708 -107.42333984 254.73779297 C-103.84293697 246.26067587 -100.26374815 237.78304617 -96.68447876 229.30545044 C-94.70636995 224.62027885 -92.72818088 219.93514116 -90.75 215.25 C-89.95833295 213.37500016 -89.16666628 211.50000016 -88.375 209.625 C-86.79166667 205.875 -85.20833333 202.125 -83.625 198.375 C-83.23314011 197.44691025 -82.84128021 196.5188205 -82.43754578 195.56260681 C-81.64572806 193.68725013 -80.8539088 191.81189409 -80.06208801 189.9365387 C-78.08521988 185.25450131 -76.10837826 180.57245273 -74.1315918 175.89038086 C-70.54168942 167.38767384 -66.95158029 158.88505438 -63.36050415 150.38284302 C-55.24139122 131.16003572 -47.12647728 111.93550383 -39.03295898 92.7019043 C-33.47070609 79.48401721 -27.89324587 66.2725884 -22.3125 53.0625 C-14.84550431 35.38731222 -7.40593725 17.70085907 0 0 Z " fill="#000000" transform="translate(3962,1553)"/>
<path d="M0 0 C3 1 3 1 4.44433594 3.66894531 C4.95254883 4.87647461 5.46076172 6.08400391 5.984375 7.328125 C6.27219849 8.00264206 6.56002197 8.67715912 6.85656738 9.37211609 C7.49155499 10.86379895 8.12150742 12.35763228 8.74719238 13.85324097 C9.77212299 16.30287501 10.80960483 18.74684374 11.85058594 21.18969727 C12.99148927 23.867622 14.13143687 26.54592205 15.26763916 29.22584534 C19.70880997 39.69876379 24.24597436 50.12969939 28.78234863 60.56164551 C30.7621427 65.11551767 32.73893376 69.67069113 34.71588135 74.22579956 C40.87679642 88.42027786 47.04651338 102.61092708 53.21813965 116.80075073 C60.47395404 133.48358035 67.71761572 150.17166595 74.95819092 166.8611145 C82.2617122 183.69528175 89.57419036 200.52553066 96.89306641 217.35302734 C102.26840323 229.7123172 107.6358332 242.0749518 112.99072266 254.44311523 C117.98195066 265.96723581 122.9911497 277.48353001 128 289 C134.00566701 302.80837513 140.00556943 316.619163 145.98828125 330.4375 C150.980346 341.96348241 155.99033565 353.48165832 161 365 C166.50766513 377.66335715 172.01335426 390.32751967 177.5 403 C182.77929046 415.19289085 188.07566306 427.37831022 193.375 439.5625 C201.24445221 457.65590106 209.10266626 475.75415378 216.95544434 493.85479736 C224.25988226 510.69106984 231.57327456 527.52342507 238.89306641 544.35302734 C244.26840323 556.7123172 249.6358332 569.0749518 254.99072266 581.44311523 C259.98195066 592.96723581 264.9911497 604.48353001 270 616 C276.00566701 629.80837513 282.00556943 643.619163 287.98828125 657.4375 C292.980346 668.96348241 297.99033565 680.48165832 303 692 C308.50766513 704.66335715 314.01335426 717.32751967 319.5 730 C324.77929046 742.19289085 330.07566306 754.37831022 335.375 766.5625 C343.24445221 784.65590106 351.10266626 802.75415378 358.95544434 820.85479736 C366.25988226 837.69106984 373.57327456 854.52342507 380.89306641 871.35302734 C386.26840323 883.7123172 391.6358332 896.0749518 396.99072266 908.44311523 C401.98195066 919.96723581 406.9911497 931.48353001 412 943 C418.00566701 956.80837513 424.00556943 970.619163 429.98828125 984.4375 C434.980346 995.96348241 439.99033565 1007.48165832 445 1019 C451.00566701 1032.80837513 457.00556943 1046.619163 462.98828125 1060.4375 C467.54306035 1070.95385072 472.112919 1081.46362519 476.68371582 1091.97302246 C477.98714704 1094.97044284 479.29005056 1097.96809202 480.59277344 1100.96582031 C485.88148358 1113.13536511 485.88148358 1113.13536511 491.18835449 1125.29699707 C492.42805075 1128.13289651 493.66518867 1130.96990731 494.90185547 1133.80712891 C495.46270625 1135.09188726 496.02485955 1136.37607787 496.58837891 1137.65966797 C497.34861138 1139.39148768 498.10414536 1141.12536775 498.859375 1142.859375 C499.48537598 1144.28975098 499.48537598 1144.28975098 500.12402344 1145.74902344 C501 1148 501 1148 501 1150 C427.08 1150 353.16 1150 277 1150 C251.79257473 1091.56460506 251.79257473 1091.56460506 244.45614624 1074.42272949 C243.0232775 1071.07482491 241.58946944 1067.72732362 240.15551758 1064.37988281 C237.10296038 1057.25356258 234.05139517 1050.12681786 231 1043 C226.89665099 1033.41631634 222.79276322 1023.83286386 218.6875 1014.25 C218.18462463 1013.07611725 217.68174927 1011.9022345 217.16363525 1010.69277954 C210.63339435 995.45129674 204.08142934 980.21944549 197.5 965 C190.4065635 948.59654651 183.34985331 932.17759237 176.3125 915.75 C175.81129639 914.58004486 175.31009277 913.41008972 174.79370117 912.2046814 C171.19493343 903.80349229 167.59735435 895.40179439 164 887 C159.83413484 877.27048996 155.66775388 867.54120118 151.5 857.8125 C150.73884384 856.03570862 150.73884384 856.03570862 149.96231079 854.22302246 C143.9990257 840.30482852 138.02058452 826.39350431 132 812.5 C125.46185889 797.41214741 118.97509035 782.30251235 112.5 767.1875 C111.99248199 766.00281128 111.48496399 764.81812256 110.96206665 763.59753418 C106.78644236 753.84976401 102.61237489 744.1013274 98.43841553 734.35284424 C94.85549917 725.98492009 91.27199255 717.6172491 87.6875 709.25 C87.18516846 708.07738617 86.68283691 706.90477234 86.1652832 705.69662476 C79.63449292 690.45386022 73.08198284 675.22072545 66.5 660 C59.4065635 643.5965465 52.3498547 627.17759177 45.3125 610.75 C44.55919907 608.99157776 44.55919907 608.99157776 43.79067993 607.19763184 C39.67541579 597.59071202 35.56174347 587.98311076 31.44812012 578.37548828 C27.86197777 570.00001232 24.27522876 561.62479654 20.6875 553.25 C20.18489655 552.07675171 19.68229309 550.90350342 19.16445923 549.69470215 C12.63394364 534.45257848 6.08170609 519.22008547 -0.5 504 C-7.5934365 487.59654651 -14.65014669 471.17759237 -21.6875 454.75 C-22.18870361 453.58004486 -22.68990723 452.41008972 -23.20629883 451.2046814 C-26.80506657 442.80349229 -30.40264565 434.40179439 -34 426 C-37.65530785 417.46291272 -41.31103751 408.92600647 -44.96783447 400.38955688 C-45.98425883 398.01657061 -47.00049607 395.64350418 -48.01654053 393.27035522 C-52.97235826 381.69564558 -57.93537986 370.12445205 -62.95703125 358.578125 C-63.52422379 357.27273018 -63.52422379 357.27273018 -64.10287476 355.94096375 C-65.81995783 351.99002695 -67.54071472 348.04078748 -69.26953125 344.0949707 C-72.15550223 337.4812591 -74.88073622 330.90864691 -77 324 C-77.66 324 -78.32 324 -79 324 C-79.09482666 324.65210449 -79.18965332 325.30420898 -79.28735352 325.97607422 C-80.23148049 329.98222588 -81.79261163 333.602815 -83.40234375 337.3828125 C-83.75115097 338.21236954 -84.09995819 339.04192657 -84.45933533 339.8966217 C-85.61446837 342.64122923 -86.77605256 345.38305933 -87.9375 348.125 C-88.75521841 350.06530112 -89.57243009 352.00581586 -90.38916016 353.9465332 C-92.08573098 357.97675679 -93.78447856 362.00605208 -95.48486328 366.03466797 C-98.93173523 374.2048417 -102.35567758 382.38458668 -105.77786255 390.56512451 C-106.88650652 393.21500286 -107.99580587 395.8646061 -109.10522461 398.51416016 C-114.75219049 412.00304294 -120.37851543 425.50048134 -126 439 C-132.36146413 454.27651684 -138.73305137 469.54871129 -145.125 484.8125 C-145.67755463 486.13201157 -145.67755463 486.13201157 -146.24127197 487.47817993 C-149.19487147 494.53096411 -152.14953277 501.58330334 -155.10424805 508.63562012 C-157.69500414 514.81936844 -160.28532317 521.00329961 -162.875 527.1875 C-163.24320862 528.06677155 -163.61141724 528.94604309 -163.99078369 529.85195923 C-170.43541686 545.24368347 -176.85566375 560.64550822 -183.2699585 576.04989624 C-189.53110553 591.08583676 -195.81065854 606.11394581 -202.10449219 621.13623047 C-208.08711486 635.41690391 -214.04824575 649.70643611 -220 664 C-226.36136769 679.27655685 -232.73305147 694.54871152 -239.125 709.8125 C-239.49336975 710.69217438 -239.8617395 711.57184875 -240.24127197 712.47817993 C-243.19487147 719.53096411 -246.14953277 726.58330334 -249.10424805 733.63562012 C-251.69500414 739.81936844 -254.28532317 746.00329961 -256.875 752.1875 C-257.24320862 753.06677155 -257.61141724 753.94604309 -257.99078369 754.85195923 C-264.43541686 770.24368347 -270.85566375 785.64550822 -277.2699585 801.04989624 C-283.53110553 816.08583676 -289.81065854 831.11394581 -296.10449219 846.13623047 C-302.08711486 860.41690391 -308.04824575 874.70643611 -314 889 C-320.36136769 904.27655685 -326.73305147 919.54871152 -333.125 934.8125 C-333.49336975 935.69217438 -333.8617395 936.57184875 -334.24127197 937.47817993 C-337.19487147 944.53096411 -340.14953277 951.58330334 -343.10424805 958.63562012 C-345.69500414 964.81936844 -348.28532317 971.00329961 -350.875 977.1875 C-351.24320862 978.06677155 -351.61141724 978.94604309 -351.99078369 979.85195923 C-358.01009465 994.227886 -364.00869249 1008.61238289 -370 1023 C-376.36146416 1038.27651691 -382.73307589 1053.54870097 -389.125 1068.8125 C-389.67107407 1070.11655792 -389.67107407 1070.11655792 -390.22817993 1071.44696045 C-393.2169988 1078.58398011 -396.20690528 1085.72054399 -399.19708252 1092.85699463 C-401.63742294 1098.68120222 -404.07736419 1104.50557671 -406.51678467 1110.33016968 C-407.64440671 1113.02212406 -408.77262438 1115.71382824 -409.90087891 1118.40551758 C-410.60452244 1120.08543655 -411.30813713 1121.7653676 -412.01171875 1123.4453125 C-412.31211563 1124.16149246 -412.61251251 1124.87767242 -412.92201233 1125.61555481 C-416.31833785 1133.72877609 -419.65093778 1141.86656317 -423 1150 C-443.46 1150 -463.92 1150 -485 1150 C-472.45514274 1119.89234258 -472.45514274 1119.89234258 -466.5625 1105.8125 C-465.99715042 1104.46161285 -465.99715042 1104.46161285 -465.42037964 1103.08343506 C-457.12066822 1083.25635864 -448.76053042 1063.45495633 -440.39111328 1043.65722656 C-436.8201247 1035.20948773 -433.253474 1026.75991737 -429.68649292 1018.31048584 C-427.70783935 1013.62358232 -425.7289055 1008.93679715 -423.75 1004.25 C-422.95833199 1002.37500057 -422.16666532 1000.50000057 -421.375 998.625 C-381 903 -381 903 -340.625 807.375 C-340.03721016 805.98286537 -340.03721016 805.98286537 -339.43754578 804.56260681 C-338.64572806 802.68725013 -337.8539088 800.81189409 -337.06208801 798.9365387 C-335.08521988 794.25450131 -333.10837826 789.57245273 -331.1315918 784.89038086 C-327.54168942 776.38767384 -323.95158029 767.88505438 -320.36050415 759.38284302 C-312.56475871 740.92564042 -304.77191361 722.46725229 -297 704 C-288.82394109 684.57243682 -280.62448486 665.15477708 -272.42333984 645.73779297 C-270.02790446 640.06625629 -267.63300259 634.39449445 -265.23828125 628.72265625 C-264.8470105 627.79594116 -264.45573975 626.86922607 -264.0526123 625.91442871 C-262.86839897 623.10962304 -261.68419717 620.3048125 -260.5 617.5 C-256.12066959 607.12740248 -251.74131128 596.75481696 -247.36050415 586.38284302 C-239.56475871 567.92564042 -231.77191361 549.46725229 -224 531 C-215.82394109 511.57243682 -207.62448486 492.15477708 -199.42333984 472.73779297 C-195.84293697 464.26067587 -192.26374815 455.78304617 -188.68447876 447.30545044 C-186.70636995 442.62027885 -184.72818088 437.93514116 -182.75 433.25 C-181.95833295 431.37500016 -181.16666628 429.50000016 -180.375 427.625 C-178.79166667 423.875 -177.20833333 420.125 -175.625 416.375 C-175.03721016 414.98286537 -175.03721016 414.98286537 -174.43754578 413.56260681 C-173.64572806 411.68725013 -172.8539088 409.81189409 -172.06208801 407.9365387 C-170.08521988 403.25450131 -168.10837826 398.57245273 -166.1315918 393.89038086 C-162.54168942 385.38767384 -158.95158029 376.88505438 -155.36050415 368.38284302 C-147.56475871 349.92564042 -139.77191361 331.46725229 -132 313 C-123.82394109 293.57243682 -115.62448486 274.15477708 -107.42333984 254.73779297 C-103.84293697 246.26067587 -100.26374815 237.78304617 -96.68447876 229.30545044 C-94.70636995 224.62027885 -92.72818088 219.93514116 -90.75 215.25 C-89.95833295 213.37500016 -89.16666628 211.50000016 -88.375 209.625 C-86.79166667 205.875 -85.20833333 202.125 -83.625 198.375 C-83.23314011 197.44691025 -82.84128021 196.5188205 -82.43754578 195.56260681 C-81.64572806 193.68725013 -80.8539088 191.81189409 -80.06208801 189.9365387 C-78.08521988 185.25450131 -76.10837826 180.57245273 -74.1315918 175.89038086 C-70.54168942 167.38767384 -66.95158029 158.88505438 -63.36050415 150.38284302 C-55.24139122 131.16003572 -47.12647728 111.93550383 -39.03295898 92.7019043 C-33.47070609 79.48401721 -27.89324587 66.2725884 -22.3125 53.0625 C-14.84550431 35.38731222 -7.40593725 17.70085907 0 0 Z " fill="#000000" transform="translate(1240,1553)"/>
<path d="M0 0 C293.37 0 586.74 0 889 0 C889 17.49 889 34.98 889 53 C776.14 53 663.28 53 547 53 C547 415.01 547 777.02 547 1150 C479.68 1150 412.36 1150 343 1150 C343 787.99 343 425.98 343 53 C229.81 53 116.62 53 0 53 C0 35.51 0 18.02 0 0 Z " fill="#000000" transform="translate(31,1553)"/>
<path d="M0 0 C66.99 0 133.98 0 203 0 C203 361.35 203 722.7 203 1095 C388.79 1095 574.58 1095 766 1095 C766 1113.15 766 1131.3 766 1150 C513.22 1150 260.44 1150 0 1150 C0 770.5 0 391 0 0 Z " fill="#000000" transform="translate(2704,1553)"/>
<path d="M0 0 C66.99 0 133.98 0 203 0 C203 361.35 203 722.7 203 1095 C388.79 1095 574.58 1095 766 1095 C766 1113.15 766 1131.3 766 1150 C513.22 1150 260.44 1150 0 1150 C0 770.5 0 391 0 0 Z " fill="#000000" transform="translate(1844,1553)"/>
</svg>
